<?xml version="1.0" encoding="iso-8859-1"?>
<!-- Generator: Adobe Illustrator 19.0.0, SVG Export Plug-In . SVG Version: 6.00 Build 0)  -->
<svg version="1.1" id="Layer_1" xmlns="http://www.w3.org/2000/svg" xmlns:xlink="http://www.w3.org/1999/xlink" x="0px" y="0px"
	 viewBox="0 0 470 470" style="enable-background:new 0 0 470 470;" xml:space="preserve">
<g>
	<path d="M250,120.734V90h-30v30.734c-77.459,7.538-138,72.829-138,152.267h306C388,193.563,327.459,128.272,250,120.734z"/>
	<path d="M220,425.485c0,8.003-6.505,14.515-14.5,14.515s-14.5-6.511-14.5-14.515h-30C161,450.031,180.963,470,205.5,470
		s44.5-19.969,44.5-44.515V303.001h-30V425.485z"/>
	<rect x="40" y="90" width="30" height="65"/>
	<rect x="40" width="30" height="60"/>
	<rect x="130" width="30" height="94"/>
	<rect x="310" width="30" height="94"/>
	<rect x="400" y="90" width="30" height="65"/>
	<rect x="400" width="30" height="60"/>
	<rect x="220" width="30" height="60"/>
</g>
<g>
</g>
<g>
</g>
<g>
</g>
<g>
</g>
<g>
</g>
<g>
</g>
<g>
</g>
<g>
</g>
<g>
</g>
<g>
</g>
<g>
</g>
<g>
</g>
<g>
</g>
<g>
</g>
<g>
</g>
</svg>
